<svg width="872" height="572" viewBox="0 0 872 572" fill="none" xmlns="http://www.w3.org/2000/svg">
<path fill-rule="evenodd" clip-rule="evenodd" d="M505.187 572H418.956L109.929 296.294L71.7769 331.633V504.082H0V0H71.7769V252.041L256.409 74.6041H295.279V74.498H702.234L871.681 254.712L865.96 259.676V261.273H864.119L506.668 571.413L505.992 572H505.187ZM853.984 251.086L699.176 86.4416L605.019 249.042L604.343 251.086H853.984ZM600.975 261.273H848.3L501.49 562.18L600.975 261.273ZM593.559 261.273L498.341 549.278L395.732 261.273H593.559ZM596.928 251.086H392.102L391.061 248.164L500.903 87.7381L597.917 248.095L596.928 251.086ZM384.632 251.086L383.934 249.126L301.481 116.553L161.001 248.539L163.728 251.086H384.632ZM174.635 261.273L494.811 560.337L388.262 261.273H174.635ZM335.4 84.6857L306.678 111.67L387.3 241.301L494.533 84.6857H335.4ZM507.232 84.6857H692.105L601.691 240.821L507.232 84.6857Z" fill="black"/>
</svg>
