<svg width="1500" height="543" viewBox="0 0 1500 543" fill="none" xmlns="http://www.w3.org/2000/svg">
<path fill-rule="evenodd" clip-rule="evenodd" d="M785.46 357H727.688L520.649 184.925L495.088 206.981V314.61H447V0H495.088V157.305L618.786 46.5623H644.828V46.4961H917.475L1031 158.973L1027.17 162.071V163.068H1025.93L786.452 356.634L785.999 357H785.46ZM1019.14 156.709L915.427 53.9504L852.344 155.434L851.892 156.709H1019.14ZM849.635 163.068H1015.34L782.983 350.871L849.635 163.068ZM844.667 163.068L780.873 342.819L712.128 163.068H844.667ZM846.923 156.709H709.696L708.999 154.886L782.59 54.7596L847.586 154.842L846.923 156.709ZM704.692 156.709L704.224 155.486L648.983 72.7437L554.866 155.119L556.693 156.709H704.692ZM564 163.068L778.508 349.721L707.123 163.068H564ZM671.708 52.8545L652.465 69.6964L706.48 150.602L778.322 52.8545H671.708ZM786.83 52.8545H910.689L850.115 150.303L786.83 52.8545Z" fill="black"/>
<path d="M46.6 543C75.7646 543 93.834 530.289 93.834 510.356C93.834 494.467 82.1048 485.8 51.0381 478.867C28.2136 473.667 20.6054 469.044 20.6054 460.089C20.6054 449.978 31.0667 443.622 47.234 443.622C61.1823 443.622 72.5945 447.956 81.1537 454.889L90.9809 443.044C78.9347 434.667 64.9864 430.333 48.819 430.333C21.8735 430.333 4.12109 442.178 4.12109 460.956C4.12109 480.6 24.0925 486.956 48.502 493.311C71.3265 499.089 77.3497 503.422 77.3497 512.089C77.3497 523.067 66.5714 529.711 48.819 529.711C34.2367 529.711 20.6054 524.8 10.1442 515.556L0 527.111C12.0463 537.511 28.5306 543 46.6 543Z" fill="black"/>
<path d="M194.16 453.444C180.212 453.444 168.483 458.933 161.192 467.6V426H145.341V541.556H161.192V491.578C161.192 476.556 174.189 466.156 190.356 466.156C204.622 466.156 213.181 475.111 213.181 491V541.556H229.031V486.667C229.031 466.733 214.766 453.444 194.16 453.444Z" fill="black"/>
<path d="M286.561 442.178H304.314V426H286.561V442.178ZM287.512 541.556H303.363V454.889H287.512V541.556Z" fill="black"/>
<path d="M412.565 453.444C397.666 453.444 384.986 459.511 378.012 469.333L376.743 454.889H363.429V541.556H379.28V491.578C379.28 476.556 392.277 466.156 408.761 466.156C423.027 466.156 431.586 475.111 431.586 491V541.556H447.436V486.667C447.436 466.733 433.171 453.444 412.565 453.444Z" fill="black"/>
<path d="M513.209 502.844H588.339C588.656 501.4 588.656 499.956 588.656 498.222C588.656 471.067 570.904 453.444 543.641 453.444C516.379 453.444 497.041 471.644 497.041 498.222C497.041 523.933 514.477 543 545.226 543C565.832 543 578.829 535.778 585.803 527.4L574.391 518.444C569.319 525.089 560.443 530.289 544.909 530.289C526.84 530.289 515.111 519.6 513.209 502.844ZM543.641 465.867C559.175 465.867 569.953 475.689 572.172 491.289H513.526C516.062 475.689 527.157 465.867 543.641 465.867Z" fill="black"/>
<path d="M828.935 454.889L806.427 524.222L783.286 454.889H767.118L744.294 523.933L721.786 454.889H705.619L735.418 541.556H752.536L775.044 473.667L797.551 541.556H814.669L844.468 454.889H828.935Z" fill="black"/>
<path d="M892.488 442.178H910.241V426H892.488V442.178ZM893.439 541.556H909.289V454.889H893.439V541.556Z" fill="black"/>
<path d="M1022.61 467.311V454.889H992.497V431.778H979.183L976.647 454.889H957.944V467.311H976.647V519.6C976.647 534.622 986.157 543 1004.23 543C1010.25 543 1016.27 542.422 1022.61 540.978V527.4C1015.64 529.133 1011.52 529.422 1006.76 529.422C996.936 529.422 992.497 526.822 992.497 517V467.311H1022.61Z" fill="black"/>
<path d="M1122.31 453.444C1108.36 453.444 1096.63 458.933 1089.34 467.6V426H1073.49V541.556H1089.34V491.578C1089.34 476.556 1102.33 466.156 1118.5 466.156C1132.77 466.156 1141.33 475.111 1141.33 491V541.556H1157.18V486.667C1157.18 466.733 1142.91 453.444 1122.31 453.444Z" fill="black"/>
<path d="M1358.15 454.889V504.867C1358.15 519.889 1345.15 530.289 1328.66 530.289C1314.4 530.289 1305.84 521.333 1305.84 505.444V454.889H1289.99V509.778C1289.99 529.711 1304.25 543 1324.86 543C1339.76 543 1352.44 536.933 1359.41 527.111L1360.68 541.556H1374V454.889H1358.15Z" fill="black"/>
<path d="M1462.91 543C1485.42 543 1500 532.889 1500 517.289C1500 504.289 1490.81 497.356 1465.45 491C1448.33 486.956 1442.62 483.489 1442.62 477.422C1442.62 470.489 1450.55 466.156 1462.59 466.156C1472.74 466.156 1481.61 469.333 1488.59 475.4L1498.1 464.133C1488.27 457.2 1475.91 453.444 1463.23 453.444C1441.67 453.444 1427.09 463.556 1427.09 478.578C1427.09 491.578 1436.28 498.511 1461.01 504.289C1479.08 508.333 1484.78 511.8 1484.78 518.444C1484.78 525.956 1476.86 530.289 1463.23 530.289C1450.55 530.289 1440.09 526.533 1432.16 519.311L1422.97 529.422C1433.43 538.378 1446.74 543 1462.91 543Z" fill="black"/>
</svg>
